# xmcd
#
# Track frame offsets:
#	150
#	10426
#	23585
#	37423
#	52252
#	73928
#	99975
#	114128
#	135891
#	150886
#	170055
#	196300
#	223632
#	237467
#
# Disc length: 3541 seconds
#
# Revision: 0
# Processed by: cddbd v1.5.2PL0 Copyright (c) Steve Scherf et al.
# Submitted via: audiograbber 1.83.01
#
DISCID=be0dd30e
DTITLE=Amplified - Amplified Sounds From Tasmania 2009 CD2
DYEAR=2009
DGENRE=
TTITLE0=Ballpoint - Keeping It Real
TTITLE1=Sole Stickers - Sometimes I Just Don't Know
TTITLE2=New Saxons - As A Writer
TTITLE3=Ivy St - Kick To The Leg
TTITLE4=The Stoics - Too Old Too Fast
TTITLE5=Ejecter - What It Is
TTITLE6=CHIROH - Too N' Fro
TTITLE7=Red Rival - Control
TTITLE8=HANNAH - The Day Will Come
TTITLE9=The Highlows - Under The Waves
TTITLE10=All Fires The Fire - Fallen Lines
TTITLE11=The Cityscape Riot - Technodrome Nights
TTITLE12=Crytearia - Excuse Me
TTITLE13=Patty Duke - Mario Bro 2
EXTD=
EXTT0=
EXTT1=
EXTT2=
EXTT3=
EXTT4=
EXTT5=
EXTT6=
EXTT7=
EXTT8=
EXTT9=
EXTT10=
EXTT11=
EXTT12=
EXTT13=
PLAYORDER=
